# xmcd
#
# Track frame offsets: 
#        150
#        17172
#        32162
#
# Disc length: 669 seconds
#
# Revision: 4
# Processed by: cddbd v1.5.2PL0 Copyright (c) Steve Scherf et al.
# Submitted via: ExactAudioCopy v0.95b4
#
DISCID=1c029b03
DTITLE=Jamiroquai - Canned Heat [CD Single)
DYEAR=1999
DGENRE=Acid Jazz
TTITLE0=Canned Heat (7" Edit)
TTITLE1=Canned Heat (Radio Edit)
TTITLE2=Wolf In Sheeps Clothing
EXTD=YEAR: 1999 ID3G: 74
EXTT0=
EXTT1=
EXTT2=
PLAYORDER=
